<svg width="375" height="812" viewBox="0 0 375 812" fill="none" xmlns="http://www.w3.org/2000/svg">
<path d="M375 0H0V812H375V0Z" fill="#15191E"/>
<path d="M82.6816 437.439C89.0801 437.439 92.9121 434.346 92.9121 429.477V429.459C92.9121 425.469 90.5215 423.307 85.2129 422.252L82.5234 421.707C79.6055 421.127 78.3047 420.195 78.3047 418.596V418.578C78.3047 416.768 79.9395 415.52 82.6641 415.502C85.2832 415.502 87.1113 416.715 87.375 418.701L87.3926 418.912H92.4023L92.3848 418.578C92.1387 414.131 88.5352 411.195 82.6641 411.195C77.0391 411.195 72.9961 414.254 72.9961 418.895V418.912C72.9961 422.727 75.5273 425.117 80.5371 426.119L83.209 426.646C86.3555 427.297 87.6035 428.158 87.6035 429.881V429.898C87.6035 431.832 85.7578 433.115 82.8223 433.115C79.9219 433.115 77.8301 431.885 77.4961 429.916L77.4609 429.723H72.4512L72.4688 430.004C72.7676 434.68 76.6523 437.439 82.6816 437.439Z" fill="white"/>
<path d="M95.7246 437H100.857V425.627C100.857 423.5 102.176 422.023 104.127 422.023C106.025 422.023 107.168 423.219 107.168 425.24V437H112.107V425.539C112.107 423.447 113.391 422.023 115.342 422.023C117.328 422.023 118.418 423.219 118.418 425.398V437H123.551V424.115C123.551 420.318 121.072 417.77 117.381 417.77C114.621 417.77 112.371 419.281 111.527 421.654H111.422C110.789 419.176 108.873 417.77 106.236 417.77C103.705 417.77 101.736 419.176 100.963 421.32H100.857V418.156H95.7246V437Z" fill="white"/>
<path d="M132.41 437.299C134.889 437.299 136.893 436.121 137.965 434.188H138.07V437H143.203V424.08C143.203 420.283 140.057 417.77 135.188 417.77C130.213 417.77 127.225 420.266 126.943 423.746L126.926 423.957H131.619L131.654 423.799C131.9 422.586 133.061 421.689 134.977 421.689C136.98 421.689 138.07 422.727 138.07 424.396V425.557L133.412 425.838C128.736 426.137 126.082 428.141 126.082 431.568V431.604C126.082 434.926 128.631 437.299 132.41 437.299ZM131.162 431.34V431.305C131.162 429.969 132.199 429.125 134.186 429.002L138.07 428.756V430.109C138.07 432.078 136.383 433.555 134.08 433.555C132.305 433.555 131.162 432.729 131.162 431.34Z" fill="white"/>
<path d="M146.525 437H151.658V426.453C151.658 423.711 153.135 422.199 155.666 422.199C156.404 422.199 157.107 422.305 157.529 422.48V417.963C157.143 417.857 156.615 417.77 156.053 417.77C153.855 417.77 152.326 419.123 151.764 421.443H151.658V418.156H146.525V437Z" fill="white"/>
<path d="M167.127 437.387C168.199 437.387 169.025 437.281 169.605 437.193V433.432C169.289 433.467 168.955 433.52 168.498 433.52C166.951 433.52 166.16 432.922 166.16 431.164V422.023H169.605V418.156H166.16V413.551H160.975V418.156H158.355V422.023H160.975V431.727C160.975 435.77 162.943 437.387 167.127 437.387Z" fill="white"/>
<path d="M183.598 437.387C188.344 437.387 191.279 433.695 191.279 427.578V427.561C191.279 421.426 188.344 417.77 183.615 417.77C180.926 417.77 178.834 419.141 177.797 421.426H177.691V411.635H172.559V437H177.691V433.783H177.797C178.816 436.016 180.891 437.387 183.598 437.387ZM181.893 433.133C179.396 433.133 177.691 430.988 177.691 427.578V427.561C177.691 424.168 179.414 422.023 181.893 422.023C184.441 422.023 186.059 424.115 186.059 427.561V427.578C186.059 431.006 184.441 433.133 181.893 433.133Z" fill="white"/>
<path d="M202.564 437.387C208.26 437.387 211.898 433.73 211.898 427.578V427.543C211.898 421.443 208.189 417.77 202.547 417.77C196.922 417.77 193.23 421.479 193.23 427.543V427.578C193.23 433.713 196.834 437.387 202.564 437.387ZM202.582 433.361C200.051 433.361 198.451 431.27 198.451 427.578V427.543C198.451 423.904 200.068 421.795 202.547 421.795C205.043 421.795 206.678 423.904 206.678 427.543V427.578C206.678 431.252 205.078 433.361 202.582 433.361Z" fill="white"/>
<path d="M223.201 437.387C228.896 437.387 232.535 433.73 232.535 427.578V427.543C232.535 421.443 228.826 417.77 223.184 417.77C217.559 417.77 213.867 421.479 213.867 427.543V427.578C213.867 433.713 217.471 437.387 223.201 437.387ZM223.219 433.361C220.688 433.361 219.088 431.27 219.088 427.578V427.543C219.088 423.904 220.705 421.795 223.184 421.795C225.68 421.795 227.314 423.904 227.314 427.543V427.578C227.314 431.252 225.715 433.361 223.219 433.361Z" fill="white"/>
<path d="M235.365 437H240.498V430.76L241.816 429.301L247.213 437H253.137L245.666 426.26L252.785 418.156H246.967L240.604 425.697H240.498V411.635H235.365V437Z" fill="white"/>
<path d="M257.232 415.73C258.779 415.73 259.975 414.518 259.975 413.059C259.975 411.6 258.779 410.387 257.232 410.387C255.686 410.387 254.49 411.6 254.49 413.059C254.49 414.518 255.686 415.73 257.232 415.73ZM254.666 437H259.799V418.156H254.666V437Z" fill="white"/>
<path d="M263.244 437H268.377V426.172C268.377 423.711 269.836 422.023 272.139 422.023C274.441 422.023 275.602 423.43 275.602 425.891V437H280.734V424.836C280.734 420.424 278.379 417.77 274.23 417.77C271.383 417.77 269.449 419.088 268.482 421.25H268.377V418.156H263.244V437Z" fill="white"/>
<path d="M292.793 443.539C298.453 443.539 301.986 440.674 301.986 436.473V418.156H296.854V421.373H296.748C295.729 419.176 293.672 417.77 291.018 417.77C286.254 417.77 283.301 421.338 283.301 427.35V427.367C283.301 433.221 286.219 436.736 290.93 436.736C293.654 436.736 295.764 435.488 296.748 433.52H296.854V436.402C296.854 438.512 295.447 439.883 292.793 439.883C290.648 439.883 289.277 439.074 288.873 438.143L288.82 438.02H283.828L283.846 438.178C284.338 441.201 287.607 443.539 292.793 443.539ZM292.705 432.975C290.139 432.975 288.521 430.883 288.521 427.49V427.473C288.521 424.098 290.156 422.023 292.705 422.023C295.201 422.023 296.871 424.115 296.871 427.473V427.49C296.871 430.865 295.219 432.975 292.705 432.975Z" fill="white"/>
<path d="M209 298H165C151.745 298 141 308.745 141 322V366C141 379.255 151.745 390 165 390H209C222.255 390 233 379.255 233 366V322C233 308.745 222.255 298 209 298Z" fill="#5486E9"/>
<path d="M192.781 317.694L204.403 329.357L198.592 335.188L181.159 317.694C184.368 314.474 189.571 314.474 192.781 317.694Z" fill="#A7D2FE"/>
<path d="M178.253 320.608L204.398 346.845C207.607 350.066 207.607 355.287 204.398 358.508L172.442 326.44L178.253 320.608Z" fill="white"/>
<path d="M169.537 329.356L201.497 361.427L195.686 367.259L169.537 341.018C166.328 337.798 166.328 332.576 169.537 329.356Z" fill="#A7D2FE"/>
<path d="M175.347 352.681L192.78 370.175C189.57 373.395 184.367 373.395 181.158 370.175L169.536 358.512L175.347 352.681Z" fill="white"/>
</svg>
