<svg width="60" height="60" viewBox="0 0 60 60" fill="none" xmlns="http://www.w3.org/2000/svg">
<rect width="60" height="60" rx="16" fill="#5486E9"/>
<path d="M33.7702 12.8441L41.3497 20.4501L37.56 24.2531L26.1907 12.8441C28.2837 10.7438 31.6772 10.7438 33.7702 12.8441Z" fill="#A7D2FE"/>
<path d="M24.2949 14.7447L41.3462 31.8556C43.4392 33.9559 43.4392 37.3612 41.3462 39.4616L20.5052 18.5477L24.2949 14.7447Z" fill="white"/>
<path d="M18.6113 20.4493L39.4549 41.3658L35.6652 45.1688L18.6113 28.0553C16.5183 25.9549 16.5183 22.5496 18.6113 20.4493Z" fill="#A7D2FE"/>
<path d="M22.4004 35.6616L33.7696 47.0706C31.6766 49.1709 28.2832 49.1709 26.1901 47.0706L18.6106 39.4646L22.4004 35.6616Z" fill="white"/>
</svg>
