<svg width="18" height="20" viewBox="0 0 18 20" fill="none" xmlns="http://www.w3.org/2000/svg">
<path fill-rule="evenodd" clip-rule="evenodd" d="M13.4109 0.752485L13.4119 1.48638C16.1665 1.69774 17.9862 3.5354 17.9891 6.35354L18 14.6025C18.0039 17.675 16.0322 19.5655 12.8718 19.5704L5.15188 19.5802C2.01119 19.5841 0.0148166 17.6486 0.0108673 14.5673L6.64975e-06 6.41519C-0.00394266 3.57846 1.75153 1.74568 4.50617 1.49812L4.50518 0.764228C4.5042 0.333678 4.83001 0.00978743 5.26444 0.00978743C5.69886 0.00880891 6.02468 0.331721 6.02567 0.76227L6.02666 1.44724L11.8914 1.43941L11.8904 0.754442C11.8894 0.323893 12.2152 0.000980739 12.6496 2.21794e-06C13.0742 -0.000976304 13.4099 0.321936 13.4109 0.752485ZM1.52148 6.71755L16.4696 6.69798V6.3555C16.4272 4.25168 15.349 3.14791 13.4138 2.98351L13.4148 3.73698C13.4148 4.15774 13.0801 4.49142 12.6556 4.49142C12.2211 4.49239 11.8943 4.1597 11.8943 3.73893L11.8934 2.94633L6.02863 2.95416L6.02962 3.74578C6.02962 4.16752 5.70479 4.50022 5.27036 4.50022C4.83594 4.5012 4.50913 4.16948 4.50913 3.74774L4.50815 2.99428C2.58286 3.18313 1.51753 4.29082 1.52049 6.41323L1.52148 6.71755ZM12.2399 11.1649V11.1757C12.2498 11.6258 12.625 11.9673 13.0801 11.9575C13.5244 11.9468 13.8789 11.574 13.869 11.1238C13.8483 10.6933 13.4918 10.342 13.0485 10.343C12.5944 10.3528 12.2389 10.7148 12.2399 11.1649ZM13.0554 15.5585C12.6013 15.5487 12.235 15.1779 12.234 14.7277C12.2241 14.2776 12.5884 13.9048 13.0426 13.894H13.0525C13.5165 13.894 13.8927 14.2649 13.8927 14.7248C13.8937 15.1847 13.5185 15.5575 13.0554 15.5585ZM8.17212 11.1806C8.19187 11.6307 8.56804 11.982 9.02221 11.9624C9.46651 11.9419 9.82096 11.57 9.80121 11.1199C9.79035 10.6796 9.42504 10.3371 8.98074 10.3381C8.52657 10.3577 8.17113 10.7305 8.17212 11.1806ZM9.02616 15.5145C8.57199 15.534 8.1968 15.1827 8.17607 14.7326C8.17607 14.2825 8.53052 13.9107 8.98469 13.8901C9.42899 13.8891 9.79529 14.2316 9.80516 14.671C9.82589 15.1221 9.47046 15.4939 9.02616 15.5145ZM4.10433 11.2148C4.12408 11.665 4.50025 12.0172 4.95442 11.9967C5.39872 11.9771 5.75317 11.6043 5.73243 11.1542C5.72256 10.7138 5.35725 10.3714 4.91196 10.3723C4.45779 10.3919 4.10334 10.7647 4.10433 11.2148ZM4.95837 15.5194C4.5042 15.5399 4.12901 15.1876 4.10828 14.7375C4.10729 14.2874 4.46273 13.9146 4.9169 13.895C5.3612 13.894 5.7275 14.2365 5.73737 14.6768C5.7581 15.127 5.40365 15.4998 4.95837 15.5194Z" fill="white"/>
</svg>
