<svg width="19" height="18" viewBox="0 0 19 18" fill="none" xmlns="http://www.w3.org/2000/svg">
<path fill-rule="evenodd" clip-rule="evenodd" d="M0.581172 2.66035C0 3.75799 0 5.20533 0 8.1V9.9C0 12.7947 0 14.242 0.581172 15.3396C1.05017 16.2254 1.77456 16.9498 2.66035 17.4188C3.75799 18 5.20533 18 8.1 18H10.2531C13.1478 18 14.5951 18 15.6928 17.4188C16.5786 16.9498 17.303 16.2254 17.772 15.3396C18.3531 14.242 18.3531 12.7947 18.3531 9.9V8.1C18.3531 5.20533 18.3531 3.75799 17.772 2.66035C17.303 1.77456 16.5786 1.05017 15.6928 0.581172C14.5951 0 13.1478 0 10.2531 0H8.1C5.20533 0 3.75799 0 2.66035 0.581172C1.77456 1.05017 1.05017 1.77456 0.581172 2.66035ZM11.4289 10.8434L14.3448 7.15994L14.3044 7.17969C14.4659 6.96238 14.4961 6.68579 14.3852 6.43885C14.2752 6.1919 14.032 6.02397 13.7707 6.00422C13.4973 5.97458 13.2259 6.09312 13.0634 6.31043L10.6227 9.40223L7.82687 7.24884C7.65534 7.12042 7.45355 7.07005 7.25176 7.09079C7.05097 7.12042 6.86936 7.22809 6.74727 7.38614L3.76173 11.1901L3.70019 11.279C3.52866 11.5941 3.60938 11.9991 3.91207 12.2174C4.05333 12.3063 4.20467 12.3656 4.3762 12.3656C4.60927 12.3755 4.83023 12.256 4.97149 12.0693L7.504 8.87771L10.3796 10.9926L10.4704 11.0509C10.7932 11.2188 11.1968 11.1408 11.4289 10.8434Z" fill="white"/>
</svg>
