<svg width="270" height="180" viewBox="0 0 270 180" fill="none" xmlns="http://www.w3.org/2000/svg">
<g clip-path="url(#clip0_2:18735)">
<path opacity="0.1" d="M157.379 35.9002C141.495 35.3346 126.367 30.1976 111.931 24.5884C97.4944 18.9792 83.176 12.7381 67.6722 9.76011C57.7004 7.84448 46.2952 7.57398 38.2623 12.9299C30.5288 18.0939 28.0303 26.9835 26.6878 35.2411C25.6767 41.4528 25.0827 47.989 27.8512 53.8048C29.7753 57.8426 33.1868 61.2361 35.5479 65.1042C43.7624 78.5603 37.9555 95.1543 29.0562 108.293C24.8839 114.458 20.0367 120.343 16.8142 126.899C13.5917 133.454 12.1019 140.977 14.9219 147.67C17.7149 154.31 24.3734 159.287 31.5866 162.791C46.2363 169.908 63.4925 171.947 80.3315 173.1C117.595 175.655 155.055 174.548 192.417 173.442C206.244 173.031 220.131 172.615 233.733 170.474C241.287 169.283 249.084 167.395 254.57 162.838C261.53 157.052 263.255 147.252 258.59 139.998C250.765 127.828 229.138 124.806 223.663 111.743C220.654 104.555 223.744 96.5461 228.12 89.8795C237.505 75.5775 253.234 63.0288 254.062 46.6783C254.631 35.4501 247.069 24.2048 235.377 18.8907C223.123 13.3209 206.127 14.0217 197.09 23.2408C187.768 32.723 171.406 36.3748 157.379 35.9002Z" fill="#5F85DB"/>
<path d="M42.0324 180C51.9558 180 60.0003 178.45 60.0003 176.538C60.0003 174.625 51.9558 173.075 42.0324 173.075C32.109 173.075 24.0645 174.625 24.0645 176.538C24.0645 178.45 32.109 180 42.0324 180Z" fill="#5F85DB"/>
<path d="M41.7307 177.811C42.8856 177.811 43.8218 176.583 43.8218 175.067C43.8218 173.551 42.8856 172.323 41.7307 172.323C40.5759 172.323 39.6396 173.551 39.6396 175.067C39.6396 176.583 40.5759 177.811 41.7307 177.811Z" fill="#3F3D56"/>
<path d="M41.7307 174.457C42.8856 174.457 43.8218 173.229 43.8218 171.713C43.8218 170.197 42.8856 168.969 41.7307 168.969C40.5759 168.969 39.6396 170.197 39.6396 171.713C39.6396 173.229 40.5759 174.457 41.7307 174.457Z" fill="#3F3D56"/>
<path d="M41.7307 171.103C42.8856 171.103 43.8218 169.874 43.8218 168.359C43.8218 166.843 42.8856 165.614 41.7307 165.614C40.5759 165.614 39.6396 166.843 39.6396 168.359C39.6396 169.874 40.5759 171.103 41.7307 171.103Z" fill="#3F3D56"/>
<path d="M41.7307 167.751C42.8856 167.751 43.8218 166.523 43.8218 165.007C43.8218 163.491 42.8856 162.263 41.7307 162.263C40.5759 162.263 39.6396 163.491 39.6396 165.007C39.6396 166.523 40.5759 167.751 41.7307 167.751Z" fill="#3F3D56"/>
<path d="M41.7307 164.397C42.8856 164.397 43.8218 163.169 43.8218 161.653C43.8218 160.137 42.8856 158.909 41.7307 158.909C40.5759 158.909 39.6396 160.137 39.6396 161.653C39.6396 163.169 40.5759 164.397 41.7307 164.397Z" fill="#3F3D56"/>
<path d="M41.7307 161.043C42.8856 161.043 43.8218 159.814 43.8218 158.299C43.8218 156.783 42.8856 155.554 41.7307 155.554C40.5759 155.554 39.6396 156.783 39.6396 158.299C39.6396 159.814 40.5759 161.043 41.7307 161.043Z" fill="#3F3D56"/>
<path d="M41.7307 157.689C42.8856 157.689 43.8218 156.46 43.8218 154.945C43.8218 153.429 42.8856 152.2 41.7307 152.2C40.5759 152.2 39.6396 153.429 39.6396 154.945C39.6396 156.46 40.5759 157.689 41.7307 157.689Z" fill="#3F3D56"/>
<path d="M49.5623 131.994C49.8489 131.63 50.1097 131.246 50.3428 130.845L44.8451 129.941L50.7894 129.985C51.3602 128.742 51.6715 127.395 51.7044 126.027C51.7373 124.659 51.4911 123.299 50.9809 122.03L43.0069 126.176L50.3698 120.766C49.68 119.574 48.7529 118.537 47.646 117.72C46.5392 116.902 45.2762 116.322 43.9359 116.015C42.5955 115.707 41.2063 115.68 39.8549 115.933C38.5034 116.187 37.2185 116.717 36.0801 117.49C34.9417 118.262 33.9743 119.262 33.2379 120.425C32.5015 121.589 32.012 122.891 31.7998 124.253C31.5877 125.614 31.6573 127.004 32.0045 128.337C32.3517 129.67 32.969 130.918 33.818 132.001C33.3726 132.569 32.9892 133.183 32.6743 133.833L39.8114 137.546L32.203 134.989C31.6678 136.571 31.5352 138.262 31.8172 139.908C32.0992 141.555 32.7869 143.104 33.818 144.417C32.6551 145.898 31.9317 147.677 31.7305 149.551C31.5292 151.424 31.8581 153.316 32.6797 155.011C33.5013 156.706 34.7824 158.136 36.3764 159.135C37.9705 160.135 39.8132 160.666 41.6938 160.666C43.5745 160.666 45.4172 160.135 47.0112 159.135C48.6052 158.136 49.8863 156.706 50.7079 155.011C51.5295 153.316 51.8584 151.424 51.6572 149.551C51.4559 147.677 50.7325 145.898 49.5697 144.417C50.9592 142.647 51.7147 140.461 51.7147 138.209C51.7147 135.957 50.9592 133.771 49.5697 132.001L49.5623 131.994Z" fill="#5F85DB"/>
<path opacity="0.1" d="M31.6753 138.198C31.6723 140.45 32.4282 142.637 33.8204 144.405C32.6576 145.886 31.9341 147.665 31.7329 149.538C31.5316 151.412 31.8605 153.304 32.6821 154.999C33.5037 156.694 34.7848 158.123 36.3788 159.123C37.9729 160.123 39.8156 160.653 41.6962 160.653C43.5769 160.653 45.4196 160.123 47.0136 159.123C48.6076 158.123 49.8887 156.694 50.7103 154.999C51.5319 153.304 51.8608 151.412 51.6596 149.538C51.4583 147.665 50.7349 145.886 49.5721 144.405C50.9072 142.701 31.6753 137.074 31.6753 138.198Z" fill="black"/>
<path d="M129.084 134.755C129.236 136.723 129.992 138.759 131.583 139.919C133.173 141.08 135.703 141.058 136.918 139.499C137.326 138.914 137.626 138.26 137.804 137.568C138.828 134.327 139.554 130.781 138.433 127.572C135.902 127.408 132.969 126.215 131.07 128.31C129.536 130.017 128.907 132.481 129.084 134.755Z" fill="#3F3D56"/>
<path d="M140.83 114.928C140.494 117.788 139.922 120.635 139.981 123.515C140.003 124.626 140.121 125.728 140.123 126.844C140.128 129.743 139.365 132.592 137.914 135.1C137.762 135.394 137.557 135.659 137.311 135.882C136.729 136.354 135.853 136.314 135.2 135.953C134.562 135.555 134.044 134.992 133.7 134.323C131.872 131.185 131.82 127.371 131.096 123.812C130.542 121.09 129.57 118.452 129.219 115.697C128.991 113.924 129.025 112.117 128.662 110.366C128.551 109.837 128.242 109.043 128.038 108.264C127.852 107.568 127.749 106.884 127.94 106.414C128.33 105.453 129.609 105.827 130.441 105.886C133.371 106.103 136.313 106.096 139.242 105.864C139.532 105.841 139.861 105.829 140.064 106.036C140.153 106.14 140.22 106.261 140.261 106.392C140.494 107.032 140.672 107.69 140.793 108.359C141.198 110.501 141.085 112.747 140.83 114.928Z" fill="#FABDBD"/>
<g opacity="0.1">
<path opacity="0.1" d="M139.701 105.864C139.55 105.848 139.398 105.848 139.247 105.864C137.843 105.977 136.437 106.033 135.033 106.041C136.589 106.044 138.145 105.985 139.701 105.864Z" fill="black"/>
<path opacity="0.1" d="M135.696 135.953C135.058 135.555 134.54 134.992 134.196 134.323C132.368 131.185 132.316 127.371 131.592 123.812C131.037 121.09 130.066 118.452 129.715 115.698C129.486 113.925 129.521 112.117 129.157 110.366C129.047 109.838 128.738 109.043 128.534 108.264C128.348 107.568 128.244 106.884 128.436 106.414C128.517 106.222 128.654 106.058 128.829 105.944C129.004 105.83 129.209 105.771 129.418 105.775C128.797 105.733 128.19 105.807 127.945 106.414C127.754 106.884 127.857 107.568 128.043 108.264C128.247 109.043 128.556 109.838 128.667 110.366C129.03 112.117 128.995 113.925 129.224 115.698C129.575 118.454 130.547 121.093 131.101 123.812C131.825 127.371 131.877 131.19 133.705 134.323C134.049 134.992 134.567 135.555 135.205 135.953C135.597 136.17 136.046 136.261 136.491 136.214C136.212 136.177 135.942 136.089 135.696 135.953Z" fill="black"/>
</g>
<path d="M150.11 130.009C148.637 132.96 148.883 137.141 148.883 137.141C149.128 146.977 145.201 167.633 145.201 167.633H141.765C141.765 167.633 141.274 144.764 141.765 142.797C142.256 140.829 141.52 133.944 140.784 124.353C140.236 117.222 141.726 110.76 142.526 107.924C142.801 106.941 142.992 106.402 142.992 106.402C142.992 106.402 148.637 98.0412 151.828 101.976C152.564 102.891 152.954 104.737 153.089 107.069C153.526 114.761 151.239 127.744 150.11 130.009Z" fill="#FABDBD"/>
<path opacity="0.1" d="M153.089 107.068C152.954 104.737 152.569 102.888 151.828 101.976C151.116 101.1 150.282 100.835 149.418 100.95C150.087 101.062 150.687 101.429 151.091 101.976C151.828 102.89 152.218 104.737 152.353 107.068C152.79 114.76 150.502 127.744 149.373 130.009C147.901 132.96 148.146 137.141 148.146 137.141C148.392 146.977 144.465 167.633 144.465 167.633H145.201C145.201 167.633 149.128 146.977 148.883 137.141C148.883 137.141 148.637 132.96 150.11 130.009C151.239 127.744 153.526 114.76 153.089 107.068Z" fill="black"/>
<path d="M139.979 166.736C139.704 166.951 139.467 167.21 139.277 167.503C138.837 168.334 139.461 169.328 140.128 169.989C140.796 170.651 141.601 171.359 141.601 172.301C141.601 173.058 141.029 173.707 140.389 174.11C140.045 174.327 139.613 174.602 139.684 175.011C139.709 175.114 139.753 175.211 139.814 175.298C140.364 176.142 141.338 176.636 142.325 176.823C143.312 177.01 144.33 176.929 145.334 176.847C145.484 176.853 145.631 176.802 145.746 176.705C145.819 176.607 145.858 176.488 145.857 176.365C145.906 175.844 145.874 175.293 146.102 174.824C146.421 174.182 147.155 173.855 147.575 173.279C148.164 172.492 148.083 171.398 147.859 170.442C147.369 168.359 146.276 165.983 144.637 164.54C142.737 162.882 141.248 165.538 139.979 166.736Z" fill="#3F3D56"/>
<path d="M147.415 42.7856C148.785 40.7347 148.429 37.8674 147.03 35.8264C145.631 33.7854 143.383 32.5017 141.063 31.673C137.937 30.5566 134.488 30.1754 131.276 31.014C128.718 31.6804 126.421 33.0747 124.011 34.1518C119.747 36.0579 115.111 36.9822 110.444 36.8568C105.263 36.7117 99.5858 35.3813 95.2392 38.2191C87.2824 43.4053 90.8215 57.5204 83.2941 63.3017C81.2644 64.8608 78.7095 65.542 76.4516 66.7445C74.1936 67.9469 72.0535 70.0396 72.1074 72.602C72.132 73.8315 72.6719 75.0045 73.3346 76.0447C76.157 80.5276 81.4338 83.3015 86.7179 83.2498C92.002 83.1982 97.1585 80.3825 100.204 76.0496C100.968 74.9652 101.64 73.7578 102.747 73.0348C104.956 71.5839 107.867 72.5995 110.503 72.8159C116.371 73.2955 122.241 68.8814 123.41 63.0903C123.901 60.6189 123.815 57.6655 125.8 56.1138C127.403 54.8622 129.658 55.1302 131.69 54.9163C135.406 54.5302 138.339 52.2113 140.357 49.1817C141.282 47.7923 141.39 46.1324 142.651 45.0381C144.011 43.8356 146.114 44.7234 147.415 42.7856Z" fill="#3F3D56"/>
<g opacity="0.1">
<path opacity="0.1" d="M105.535 37.3314C107.687 37.3905 109.84 37.2257 111.958 36.8395C111.374 36.8568 110.785 36.8568 110.198 36.8395C106.131 36.7264 101.76 35.8854 97.9658 36.8986C100.469 36.9232 103.058 37.2625 105.535 37.3314Z" fill="black"/>
<path opacity="0.1" d="M97.8333 73.5241C96.7264 74.247 96.0539 75.4544 95.2906 76.5389C92.9445 79.8384 89.5157 82.2067 85.6035 83.23C85.8907 83.2423 86.1778 83.2497 86.4674 83.2473C91.7564 83.1956 96.908 80.38 99.9538 76.0471C100.717 74.9626 101.39 73.7552 102.496 73.0322L102.688 72.9142C100.955 72.6757 99.2543 72.5921 97.8333 73.5241Z" fill="black"/>
<path opacity="0.1" d="M146.782 35.8189C145.385 33.7877 143.135 32.4943 140.815 31.6656C137.689 30.5491 134.24 30.168 131.028 31.0065C130.954 31.0237 130.883 31.0459 130.812 31.0655C132.635 31.1674 134.434 31.5353 136.152 32.1574C138.472 32.9861 140.722 34.2796 142.119 36.3108C143.515 38.342 143.873 41.2289 142.504 43.27C141.203 45.2151 139.1 44.3274 137.723 45.525C136.461 46.6192 136.353 48.2791 135.428 49.6685C133.693 52.2677 131.278 54.3408 128.271 55.1277C129.305 55.0047 130.394 55.0195 131.425 54.9113C135.141 54.5252 138.074 52.2063 140.091 49.1767C141.017 47.7873 141.125 46.1274 142.386 45.0331C143.763 43.8356 145.866 44.7233 147.167 42.7782C148.539 40.7273 148.183 37.8501 146.782 35.8189Z" fill="black"/>
<path opacity="0.1" d="M126.765 55.403C124.745 55.6145 122.489 55.3489 120.874 56.6006C118.889 58.1523 118.984 61.1057 118.484 63.577C117.622 67.8977 114.122 71.4609 109.967 72.7863L110.259 72.8134C116.128 73.2929 121.998 68.8788 123.167 63.0877C123.657 60.6163 123.571 57.6629 125.557 56.1113C126.013 55.7695 126.53 55.5191 127.081 55.3735C126.971 55.376 126.87 55.3932 126.765 55.403Z" fill="black"/>
</g>
<path d="M186.065 33.9822C186.065 33.9822 180.175 45.7858 178.212 50.2121C176.248 54.6385 158.332 61.278 155.877 61.5239C155.219 61.6143 154.606 61.9103 154.125 62.3698C152.738 63.5994 151.951 65.7043 151.951 65.7043C151.951 65.7043 152.932 72.3439 151.705 83.4097C151.681 83.6237 151.659 83.8376 151.639 84.0442C150.569 94.574 152.81 97.0577 152.81 97.0577C152.81 97.0577 129.003 106.156 129.739 94.3527C129.97 90.637 129.936 87.9222 129.707 85.6524C129.457 83.3289 128.986 81.0347 128.298 78.8014C127.717 76.7628 127.022 74.5275 126.303 71.4832C125.957 69.9642 125.501 68.4725 124.939 67.02C124.921 66.9757 124.904 66.9314 124.889 66.8896C123.662 63.8379 122.435 62.8518 121.733 62.5321C121.07 62.2433 120.439 61.8873 119.848 61.4698C117.581 59.8296 112.714 56.1533 108.379 51.8105C102.489 45.9087 96.5988 31.8919 96.5988 31.8919C96.5988 31.8919 94.8807 23.777 98.8076 17.1374C102.735 10.4979 101.016 30.1706 101.016 30.1706C101.016 30.1706 108.134 39.761 109.852 44.1874C110.736 46.4645 112.139 47.6301 113.288 48.235C115.186 49.2248 117.003 50.3627 118.722 51.6384C119.884 52.5182 121.105 53.3168 122.376 54.0286C125.12 55.5041 128.406 57.1689 131.145 57.6066C131.573 57.6774 132.006 57.7144 132.439 57.7172C132.644 57.7238 132.849 57.6829 133.036 57.5976C133.223 57.5123 133.389 57.3849 133.519 57.2254C134.255 56.3574 134.238 54.4885 134.069 52.9515C133.978 52.1553 133.844 51.3648 133.666 50.5834C133.666 50.5834 141.643 45.5423 141.397 51.69C141.359 52.3694 141.422 53.0506 141.584 53.7114C141.714 54.3179 142.003 54.8789 142.421 55.3368C142.839 55.7948 143.371 56.1334 143.962 56.318C144.92 56.5995 145.933 56.6325 146.907 56.4139C147.211 56.362 147.504 56.2615 147.776 56.1164C148.512 55.6246 155.875 53.4114 158.084 53.1655C160.293 52.9196 171.337 47.5096 171.337 47.5096L183.363 30.7878C183.363 30.7878 183.118 20.9515 188.026 17.0169C192.935 13.0824 186.065 33.9822 186.065 33.9822Z" fill="#FABDBD"/>
<g opacity="0.1">
<path opacity="0.1" d="M151.639 82.5686C151.425 84.5447 151.33 86.5321 151.357 88.5196C151.381 87.2212 151.467 85.7384 151.639 84.0441C151.659 83.8375 151.681 83.6236 151.705 83.4096C152.135 79.6226 152.34 75.8133 152.319 72.002C152.281 75.3209 152.076 78.6359 151.705 81.9342C151.691 82.1481 151.659 82.3621 151.639 82.5686Z" fill="black"/>
<path opacity="0.1" d="M133.922 50.4259C133.757 50.5218 133.676 50.5808 133.676 50.5808C133.915 51.6328 134.072 52.7015 134.148 53.7776C134.197 52.6554 134.121 51.5312 133.922 50.4259Z" fill="black"/>
<path opacity="0.1" d="M101.132 28.8352C101.252 27.1138 101.431 24.0277 101.397 21.2833C101.355 24.9523 101.029 28.695 101.029 28.695L101.132 28.8352Z" fill="black"/>
<path opacity="0.1" d="M129.756 94.0648C129.756 94.1607 129.756 94.2566 129.739 94.3525C129.003 106.156 152.809 97.0575 152.809 97.0575C152.531 96.6808 152.321 96.2579 152.188 95.8083C148.603 97.087 130.583 103.033 129.756 94.0648Z" fill="black"/>
<path opacity="0.1" d="M186.065 32.5066C186.065 32.5066 180.175 44.3102 178.212 48.7366C176.248 53.1629 158.332 59.8024 155.878 60.0483C155.219 60.1388 154.606 60.4347 154.125 60.8943C152.739 62.1238 151.951 64.2288 151.951 64.2288C151.951 64.2288 152.01 64.6296 152.081 65.3919C152.356 64.7599 153.062 63.3091 154.125 62.3697C154.606 61.9102 155.219 61.6142 155.878 61.5238C158.332 61.2779 176.248 54.6384 178.212 50.212C180.175 45.7857 186.065 33.9821 186.065 33.9821C186.065 33.9821 190.216 21.3547 189.759 17.5775C189.381 22.417 186.065 32.5066 186.065 32.5066Z" fill="black"/>
<path opacity="0.1" d="M129.707 84.1769C129.457 81.8533 128.986 79.5591 128.298 77.3259C127.717 75.2873 127.022 73.052 126.303 70.0076C125.957 68.4887 125.501 66.997 124.939 65.5444C124.921 65.5001 124.904 65.4559 124.889 65.4141C123.662 62.3624 122.435 61.3763 121.733 61.0566C121.07 60.7677 120.439 60.4118 119.848 59.9943C117.581 58.354 112.714 54.6777 108.379 50.335C102.489 44.4332 96.5988 30.4164 96.5988 30.4164C96.3811 29.2331 96.2596 28.034 96.2356 26.8311C96.1756 28.5261 96.2974 30.2228 96.5988 31.8918C96.5988 31.8918 102.489 45.9086 108.379 51.8104C112.714 56.1532 117.581 59.8295 119.848 61.4697C120.444 61.8881 121.08 62.2441 121.748 62.532C122.447 62.8517 123.672 63.8378 124.904 66.8895C124.919 66.9313 124.936 66.9756 124.953 67.0199C125.513 68.4726 125.967 69.9643 126.311 71.4831C127.03 74.5274 127.724 76.7627 128.306 78.8013C128.993 81.0346 129.465 83.3288 129.715 85.6523C129.818 86.6802 129.879 87.7991 129.896 89.0582C129.926 87.4288 129.863 85.799 129.707 84.1769Z" fill="black"/>
</g>
<path d="M154.015 73.4947C153.64 74.1154 153.312 74.7631 153.033 75.4324C152.662 76.4653 152.66 77.5891 152.591 78.6834C152.493 80.219 152.26 81.7431 151.894 83.2376C151.835 83.5128 151.753 83.7826 151.649 84.0442C151.575 84.2202 151.479 84.3856 151.362 84.536C151.231 84.6963 151.077 84.8364 150.905 84.9516C150.642 85.1275 150.363 85.2798 150.073 85.4065C146.657 87.0049 142.931 88.4164 139.203 87.8656C137.627 87.5895 136.102 87.0754 134.68 86.3409C133.33 85.6844 131.803 84.9048 130.404 85.4508C130.19 85.5599 129.958 85.6323 129.72 85.6647C129.674 85.6655 129.627 85.6614 129.582 85.6524C129.121 85.5639 129.121 84.0048 129.015 83.545C128.613 81.7793 128.551 80.3482 128.311 78.8137C128.183 77.9651 127.985 77.1286 127.719 76.3128C126.738 73.3373 126.441 70.1651 126.441 67.047C126.441 66.892 125.336 67.047 124.968 67.0322C124.875 67.0322 124.823 67.0175 124.845 66.9855C124.867 66.9549 124.891 66.9269 124.919 66.9019C125.048 66.7973 125.198 66.7226 125.358 66.683L125.648 66.5969C127.165 66.1666 128.839 65.9871 129.972 64.9174C131.151 63.8133 131.445 62.0501 131.393 60.4369C131.379 59.9181 131.126 58.659 131.168 57.6139C131.595 57.6847 132.028 57.7217 132.461 57.7246C132.667 57.7311 132.871 57.6902 133.058 57.6049C133.246 57.5196 133.411 57.3923 133.541 57.2328C133.95 58.027 134.305 58.8487 134.601 59.6918C135.018 60.7197 135.338 61.8017 135.949 62.7313C136.93 64.2461 138.742 65.242 140.543 65.0895C142.345 64.9371 144.021 63.5501 144.342 61.7698C144.625 60.2083 143.969 57.9606 143.984 56.3376C144.942 56.6191 145.955 56.6521 146.929 56.4336C146.971 56.5338 147.006 56.6364 147.035 56.7409C147.587 58.6394 148.323 60.8181 150.176 61.4919C151.374 61.9247 152.79 61.6001 153.897 62.2296C153.982 62.2786 154.064 62.3328 154.142 62.3919C154.398 62.5823 154.618 62.8162 154.793 63.0829C155.247 63.835 155.517 64.6846 155.581 65.5617C155.864 68.3035 155.318 71.0674 154.015 73.4947Z" fill="#5F85DB"/>
<path opacity="0.1" d="M141.584 53.7089C140.359 54.1817 139.041 54.3593 137.736 54.2273C136.43 54.0953 135.174 53.6574 134.069 52.949C133.978 52.1528 133.844 51.3622 133.666 50.5809C133.666 50.5809 141.642 45.5398 141.397 51.6875C141.359 52.3668 141.422 53.048 141.584 53.7089Z" fill="black"/>
<path d="M138.572 53.7778C143.181 53.7778 146.917 50.0345 146.917 45.4169C146.917 40.7993 143.181 37.056 138.572 37.056C133.964 37.056 130.228 40.7993 130.228 45.4169C130.228 50.0345 133.964 53.7778 138.572 53.7778Z" fill="#FABDBD"/>
<path d="M123.972 66.196C123.972 66.196 140.17 55.8679 190.483 66.9338C240.796 77.9997 270.002 69.1469 270.002 69.1469V80.7046C270.002 80.7046 213.554 86.8524 191.956 80.7046C170.358 74.5569 139.613 71.0109 128.846 80.53L123.972 66.196Z" fill="#F86D70"/>
<path opacity="0.1" d="M123.972 66.196C123.972 66.196 140.17 55.8679 190.483 66.9338C240.796 77.9997 270.002 69.1469 270.002 69.1469V80.7046C270.002 80.7046 213.554 86.8524 191.956 80.7046C170.358 74.5569 139.613 71.0109 128.846 80.53L123.972 66.196Z" fill="black"/>
<path d="M124.462 66.6879C124.462 66.6879 140.17 56.3597 190.483 67.4256C240.796 78.4915 269.511 69.6388 269.511 69.6388L269.757 80.2128C269.757 80.2128 213.799 86.3605 192.201 80.2128C170.603 74.0651 140.104 69.7814 129.337 79.3005L124.462 66.6879Z" fill="#F86D70"/>
<path d="M118.557 82.5735C118.557 82.5735 102.359 92.9017 52.0457 81.8358C1.73257 70.7699 4.18687 79.6226 4.18687 79.6226V68.065C4.18687 68.065 28.9753 61.9173 50.5731 68.065C72.171 74.2127 102.916 77.7587 113.683 68.2396L118.557 82.5735Z" fill="#F86D70"/>
<path opacity="0.1" d="M118.557 82.5735C118.557 82.5735 102.359 92.9017 52.0457 81.8358C1.73257 70.7699 4.18687 79.6226 4.18687 79.6226V68.065C4.18687 68.065 28.9753 61.9173 50.5731 68.065C72.171 74.2127 102.916 77.7587 113.683 68.2396L118.557 82.5735Z" fill="black"/>
<path d="M118.067 82.0817C118.067 82.0817 102.359 92.4099 52.046 81.344C1.73289 70.2781 4.67805 79.1308 4.67805 79.1308L4.43262 68.5568C4.43262 68.5568 28.7302 62.4091 50.328 68.5568C71.9259 74.7045 102.425 78.9882 113.192 69.4691L118.067 82.0817Z" fill="#F86D70"/>
<path d="M131.396 46.8013C131.15 45.2668 130.772 43.334 132.054 42.4561C132.511 42.1785 133.039 42.0417 133.573 42.0626C136.226 42.0356 138.761 43.8873 141.363 43.3463C142.191 43.1724 142.951 42.7627 143.552 42.1662C144.153 41.5698 144.569 40.8121 144.751 39.9843C144.932 39.1564 144.871 38.2937 144.575 37.4998C144.279 36.7059 143.76 36.0147 143.081 35.5092C142.057 34.7469 140.764 34.4714 139.512 34.2132C136.221 33.5345 132.785 32.8583 129.535 33.7214C126.286 34.5846 123.316 37.5035 123.576 40.8528C123.699 42.4561 124.514 43.9119 125.366 45.2791C126.014 46.3168 128.537 51.1809 129.761 51.2547C131.489 51.3555 131.565 47.8046 131.396 46.8013Z" fill="#3F3D56"/>
<path d="M152.073 92.8772C152.073 92.8772 135.138 97.0577 129.493 92.8772C129.493 92.8772 127.039 102.468 127.775 107.386C127.775 107.386 139.802 108.124 141.029 108.861C141.029 108.861 141.274 106.894 142.501 107.878C142.501 107.878 146.674 102.959 154.282 107.386C154.282 107.386 155.754 95.8281 152.073 92.8772Z" fill="#5F85DB"/>
<path opacity="0.1" d="M143.086 35.5092C142.911 35.3824 142.728 35.2674 142.539 35.1649C143.045 35.7418 143.391 36.4418 143.543 37.1948C143.695 37.9479 143.647 38.7277 143.404 39.4564C143.161 40.185 142.731 40.8369 142.157 41.3469C141.584 41.8569 140.887 42.2072 140.136 42.3627C137.534 42.9036 134.999 41.052 132.346 41.079C131.812 41.058 131.284 41.1949 130.827 41.4725C129.545 42.3504 129.921 44.2832 130.166 45.8177C130.328 46.821 130.262 50.3719 128.539 50.276H128.51C128.983 50.8539 129.425 51.2449 129.766 51.2596C131.484 51.3555 131.556 47.8169 131.394 46.8013C131.148 45.2668 130.773 43.334 132.054 42.4561C132.511 42.1785 133.039 42.0417 133.573 42.0626C136.226 42.0356 138.761 43.8873 141.363 43.3463C142.191 43.1724 142.951 42.7627 143.552 42.1662C144.153 41.5698 144.569 40.8121 144.751 39.9843C144.932 39.1564 144.871 38.2937 144.575 37.4998C144.279 36.7059 143.76 36.0147 143.081 35.5092H143.086Z" fill="black"/>
<g opacity="0.1">
<path opacity="0.1" d="M21.1956 23.8286C21.1956 23.8286 2.8448 16.0972 0.439585 30.0402C0.439585 30.0402 -0.814562 32.2116 0.930445 34.0067C0.930445 34.0067 1.30595 33.0452 3.08041 34.0412C3.71386 34.3901 4.38604 34.6633 5.08312 34.8551C6.02511 35.1155 7.02603 35.062 7.93502 34.7027C7.93502 34.7027 13.9701 34.3756 19.0456 26.4647C19.0456 26.4647 21.2201 25.1171 21.3306 24.613L17.6933 24.8589C17.6933 24.8589 17.9706 27.527 16.4662 29.1279C16.4662 29.1279 17.8038 24.9893 17.1607 24.8712C17.0307 24.8466 15.239 25.0852 15.239 25.0852C15.239 25.0852 15.7029 29.723 13.2756 32.1231C13.2756 32.1231 15.5286 27.4041 14.5469 25.1688L11.8644 25.6876C11.8644 25.6876 12.6006 30.5665 9.94509 33.4067C9.94509 33.4067 12.127 28.3902 11.2851 25.8401L8.71303 26.7057C8.71303 26.7057 9.33397 31.4812 7.11283 33.8371C7.11283 33.8371 9.05172 27.7852 8.13872 26.9516C8.13872 26.9516 5.82677 27.891 5.33101 28.4271C5.33101 28.4271 5.69915 31.8698 4.28547 33.0993C4.28547 33.0993 5.1543 28.9189 4.72479 28.7467C4.72479 28.7467 2.03733 30.773 1.22005 32.5214C1.22005 32.5214 2.24104 29.8509 4.3861 28.341C4.3861 28.341 2.58464 28.0361 1.19551 28.791C1.19551 28.791 2.12569 27.018 5.03649 27.859C5.03649 27.859 7.19382 26.3639 7.62578 26.3836C7.62578 26.3836 4.87205 25.154 2.88161 25.304C2.88161 25.304 5.0144 24.0745 8.30071 26.1303L10.863 25.2008C10.863 25.2008 7.30672 23.3736 5.52244 23.381C5.52244 23.381 7.89329 22.4638 11.5306 25.0212L14.1542 24.4827C14.1542 24.4827 11.2091 22.6753 9.22352 22.2548C9.22352 22.2548 11.6066 21.8785 14.9126 24.3597L16.7091 24.2073C16.7091 24.2073 14.5346 22.9261 13.8769 22.6138C13.2191 22.3015 13.2486 22.0974 13.2486 22.0974C14.8141 22.3697 16.2732 23.073 17.4626 24.1286C17.4626 24.1286 21.1784 24.0573 21.1956 23.8286Z" fill="#5F85DB"/>
</g>
<g opacity="0.1">
<path opacity="0.1" d="M20.5176 9.96917C20.5176 9.96917 14.0039 -5.09763 4.65545 1.81239C4.65545 1.81239 2.67483 2.38782 2.69201 4.44361C2.69201 4.44361 3.46266 4.08705 3.94861 5.69037C4.1303 6.25974 4.37738 6.80604 4.6849 7.31828C5.09162 8.00727 5.711 8.545 6.44954 8.85029C6.44954 8.85029 10.2193 12.1012 17.7393 10.2987C17.7393 10.2987 19.7985 10.7413 20.1519 10.5028L17.8522 8.56995C17.8522 8.56995 16.5024 10.3134 14.6911 10.3995C14.6911 10.3995 17.8399 8.70274 17.5233 8.26503C17.4595 8.1765 16.2618 7.29615 16.2618 7.29615C16.2618 7.29615 13.8983 10.3159 11.1078 10.3626C11.1078 10.3626 15.1304 8.84291 15.8176 6.9568L13.9302 5.72725C13.9302 5.72725 11.5888 9.04456 8.40071 9.21669C8.40071 9.21669 12.5485 7.49533 13.4983 5.48872L11.4784 4.5346C11.4784 4.5346 9.13209 7.73141 6.47899 7.8519C6.47899 7.8519 11.071 5.36331 10.9998 4.34771C10.9998 4.34771 9.09282 3.58539 8.48906 3.62965C8.48906 3.62965 6.75387 5.87972 5.20521 5.81578C5.20521 5.81578 8.09883 3.82638 7.9393 3.47965C7.9393 3.47965 5.19048 3.15013 3.71054 3.72556C3.71054 3.72556 5.83596 2.72225 7.96875 3.05177C7.96875 3.05177 7.07293 1.83944 5.82369 1.50255C5.82369 1.50255 7.38463 0.978763 8.63632 3.1403C8.63632 3.1403 10.7667 3.48211 11.0145 3.73785C11.0145 3.73785 10.0819 1.42877 8.80567 0.388582C8.80567 0.388582 10.7691 0.880401 11.5545 3.97147L13.6038 4.88379C13.6038 4.88379 12.5313 1.76813 11.4539 0.757444C11.4539 0.757444 13.3854 1.56402 14.0922 5.1592L15.955 6.33711C15.955 6.33711 15.231 3.58293 14.2935 2.21076C14.2935 2.21076 15.9231 3.3444 16.4778 6.70597L17.6313 7.64042C17.6313 7.64042 17.0668 5.63873 16.8533 5.07806C16.6398 4.51739 16.7748 4.4141 16.7748 4.4141C17.5487 5.47023 18.0151 6.7207 18.1222 8.0265C18.1222 8.0265 20.3851 10.097 20.5176 9.96917Z" fill="#5F85DB"/>
</g>
</g>
<defs>
<clipPath id="clip0_2:18735">
<rect width="270" height="180" fill="white"/>
</clipPath>
</defs>
</svg>
