<svg width="209" height="139" viewBox="0 0 209 139" fill="none" xmlns="http://www.w3.org/2000/svg">
<g clip-path="url(#clip0_2:19808)">
<path d="M200.831 93.0217C199.321 94.6774 197.45 95.91 195.419 96.867H195.416C195.225 96.958 195.034 97.0466 194.841 97.1302H194.838L194.836 97.1327L194.833 97.1302H194.831C194.831 97.1305 194.831 97.1309 194.831 97.1312C194.831 97.1315 194.83 97.1318 194.83 97.132C194.83 97.1322 194.83 97.1324 194.829 97.1325C194.829 97.1326 194.829 97.1327 194.828 97.1327H194.826L194.824 97.1302C194.821 97.1327 194.821 97.1327 194.819 97.1302L194.816 97.1327L194.814 97.1302H194.811C194.809 97.1327 194.809 97.1327 194.806 97.1302H194.804C193.445 97.7207 192.048 98.222 190.624 98.6309C182.251 101.017 173.45 101.478 164.874 99.9816C164.71 99.952 164.548 99.9225 164.384 99.893V79.9385C164.546 79.8696 164.71 79.8007 164.874 79.7343C165.945 79.289 167.029 78.8798 168.125 78.5067C169.703 77.9654 171.303 77.5013 172.924 77.1142C178.216 75.8282 183.675 75.3849 189.103 75.8005C190.09 75.8743 191.075 75.9809 192.058 76.1203C194.113 76.4082 196.269 76.91 198.165 77.7809H198.168C198.444 77.9113 198.716 78.0466 198.986 78.1918C200.671 79.1094 202.092 80.3715 202.959 82.101C203.271 82.7221 203.495 83.3837 203.626 84.0667V84.0716C203.675 84.3078 203.709 84.5464 203.736 84.7826C204.045 87.6954 202.842 90.8125 200.831 93.0217Z" fill="#F2F2F2"/>
<path d="M203.736 84.7827C203.712 84.7887 203.687 84.792 203.663 84.7925C199.466 84.977 195.275 85.2509 191.09 85.6142H191.083C191.066 85.6167 191.051 85.6167 191.034 85.6191C186.737 85.9931 182.449 86.4613 178.17 87.0239C177.988 87.0485 177.809 87.0731 177.631 87.0953C174.671 87.4913 171.718 87.9309 168.769 88.4139C167.469 88.6279 166.17 88.851 164.874 89.0831C164.71 89.1126 164.548 89.1397 164.384 89.1716V88.4262C164.548 88.3942 164.713 88.3672 164.874 88.3376C169.191 87.5701 173.522 86.9001 177.868 86.3277C178.961 86.1801 180.055 86.0407 181.151 85.9094C184.316 85.5257 187.486 85.1943 190.661 84.9155C190.894 84.8958 191.124 84.8762 191.357 84.8565C195.421 84.5096 199.491 84.2464 203.567 84.0668C203.587 84.0659 203.607 84.0675 203.626 84.0717C204.018 84.1061 204.101 84.6966 203.736 84.7827Z" fill="white"/>
<path d="M195.021 96.4054C189.793 96.444 184.642 94.2178 180.945 90.5331C179.901 89.4894 178.982 88.3278 178.205 87.0716C177.955 86.6702 177.372 87.1129 177.619 87.5109C180.491 92.1361 185.275 95.4309 190.549 96.6424C192.047 96.9832 193.579 97.1479 195.115 97.133C195.584 97.1295 195.486 96.402 195.021 96.4054V96.4054Z" fill="white"/>
<path d="M172.924 77.1141C172.902 77.1833 172.862 77.2454 172.808 77.2941C172.754 77.3429 172.689 77.3767 172.618 77.3921C171.42 77.7074 170.263 78.1615 169.169 78.7452C167.572 79.5923 166.122 80.6931 164.874 82.005C164.808 82.0714 164.744 82.1378 164.683 82.2067C164.58 82.3149 164.482 82.4257 164.384 82.5388V81.4662C164.541 81.2989 164.705 81.1341 164.874 80.9766C165.859 80.0297 166.95 79.2008 168.125 78.5066C169.703 77.9653 171.303 77.5012 172.924 77.1141Z" fill="white"/>
<path d="M198.599 77.5872C195.273 79.0225 192.491 81.4862 190.656 84.6197C190.619 84.7094 190.619 84.8101 190.655 84.9001C190.691 84.9901 190.761 85.0621 190.85 85.1004C190.94 85.1359 191.039 85.1354 191.129 85.0991C191.218 85.0628 191.289 84.9935 191.329 84.9054C193.08 81.9459 195.722 79.6213 198.874 78.267C199.306 78.0814 199.032 77.4013 198.599 77.5872L198.599 77.5872Z" fill="white"/>
<path d="M208.623 56.6921C208.055 58.862 206.965 60.8277 205.61 62.6212L205.608 62.6236C205.483 62.7909 205.353 62.9607 205.218 63.123V63.1255C204.278 64.2891 203.262 65.3896 202.178 66.4197C198.281 70.1489 193.879 73.307 189.103 75.8003C181.589 79.7415 173.191 82.0713 164.874 82.2042C164.811 82.2066 164.747 82.2066 164.683 82.2066C164.583 82.2091 164.482 82.2091 164.384 82.2091V71.0276C164.543 70.7225 164.708 70.4175 164.874 70.1149C167.036 66.2092 169.671 62.588 172.721 59.3344C172.795 59.2532 172.871 59.172 172.947 59.0933C174.093 57.8779 175.295 56.7208 176.553 55.622C181.391 51.3502 186.982 48.025 193.038 45.8181C194.99 45.1145 197.131 44.5512 199.214 44.4405C199.52 44.4232 199.824 44.4158 200.13 44.4183C202.048 44.4454 203.888 44.9005 205.458 46.0273C206.021 46.4329 206.525 46.9138 206.958 47.4566C207.109 47.6461 207.249 47.8404 207.384 48.0397V48.0421C209.006 50.4777 209.383 53.7965 208.623 56.6921Z" fill="#F2F2F2"/>
<path d="M207.384 48.0397V48.0422C207.366 48.0581 207.346 48.0721 207.325 48.084C203.699 50.2022 200.119 52.3975 196.585 54.6699C196.58 54.6723 196.578 54.6748 196.573 54.6773C196.559 54.6872 196.544 54.6962 196.529 54.7043C192.895 57.0415 189.314 59.4574 185.784 61.952C185.637 62.0553 185.487 62.1611 185.338 62.2669C182.9 63.9964 180.488 65.7628 178.101 67.5661C173.593 70.9759 169.184 74.512 164.874 78.1744C164.71 78.3122 164.548 78.4524 164.384 78.5926V77.6356C164.546 77.4954 164.71 77.3552 164.874 77.2174C166.525 75.8176 168.191 74.4374 169.872 73.0769C170.374 72.671 170.879 72.2651 171.383 71.8641C175.867 68.2796 180.45 64.8288 185.134 61.5116H185.137C186.058 60.8597 186.981 60.2135 187.905 59.573C190.531 57.7574 193.187 55.9853 195.872 54.2566C196.066 54.1311 196.262 54.0056 196.458 53.8802C199.895 51.6759 203.377 49.5437 206.904 47.4837C206.921 47.4732 206.939 47.4642 206.958 47.4566C207.325 47.309 207.67 47.7962 207.384 48.0397Z" fill="white"/>
<path d="M205.043 62.3985C200.431 64.8714 194.841 65.3026 189.861 63.7645C188.455 63.327 187.103 62.7273 185.834 61.9773C185.427 61.7381 185.116 62.4021 185.519 62.6393C190.202 65.3956 195.962 66.0818 201.193 64.6943C202.677 64.2974 204.11 63.7285 205.463 62.999C205.877 62.7772 205.454 62.1782 205.043 62.3985V62.3985Z" fill="white"/>
<path d="M170.538 71.3996C170.31 70.1117 170.232 68.8015 170.305 67.4955C170.47 64.5169 171.378 61.6277 172.946 59.0938C174.094 57.8789 175.296 56.7216 176.553 55.6219C176.565 55.6939 176.558 55.7676 176.533 55.836C176.507 55.9044 176.465 55.965 176.409 56.0118C175.495 56.85 174.68 57.7918 173.981 58.8183C171.485 62.4766 170.511 66.9694 171.266 71.3387C171.278 71.3883 171.278 71.4401 171.264 71.4894C171.251 71.5386 171.225 71.5835 171.189 71.6199C171.137 71.6657 171.074 71.697 171.005 71.7105C170.937 71.7241 170.867 71.7195 170.801 71.6973C170.735 71.675 170.676 71.6358 170.63 71.5836C170.584 71.5313 170.552 71.4679 170.538 71.3996Z" fill="white"/>
<path d="M199.506 44.0647C197.225 46.8871 195.901 50.3669 195.726 53.9976C195.734 54.0944 195.78 54.1838 195.854 54.2465C195.928 54.3092 196.023 54.3402 196.12 54.3327C196.216 54.3224 196.304 54.2756 196.366 54.2018C196.428 54.1281 196.459 54.0332 196.454 53.9368C196.635 50.4991 197.9 47.2081 200.064 44.5386C200.361 44.1725 199.804 43.6979 199.506 44.0647Z" fill="white"/>
<path d="M174.137 52.1484V52.1509C174.12 52.3624 174.1 52.5716 174.078 52.7807V52.7856C173.908 54.2741 173.642 55.75 173.282 57.2041C173.111 57.9175 172.924 58.626 172.721 59.3346C172.697 59.4256 172.67 59.5166 172.643 59.6052V59.6077C172.044 61.6683 171.329 63.6931 170.502 65.672C168.978 69.3154 167.093 72.7953 164.874 76.0588C164.715 76.2975 164.551 76.5361 164.384 76.7723V38.2459C164.548 38.2361 164.71 38.2361 164.874 38.241C164.953 38.241 165.031 38.2435 165.109 38.2484C165.801 38.2849 166.483 38.4182 167.138 38.6445C167.368 38.7208 167.591 38.8069 167.812 38.9028C170.484 40.0788 172.584 42.6718 173.495 45.5232C174.179 47.6586 174.316 49.9047 174.137 52.1484Z" fill="#F2F2F2"/>
<path d="M167.812 38.9029C167.806 38.927 167.797 38.9502 167.785 38.9718C166.792 40.908 165.822 42.854 164.874 44.8098C164.71 45.1468 164.546 45.4864 164.384 45.8234V44.1505C164.546 43.8159 164.709 43.4813 164.874 43.1467C165.607 41.6559 166.352 40.1716 167.109 38.6938C167.117 38.6766 167.127 38.6601 167.138 38.6446C167.363 38.3199 167.922 38.5413 167.812 38.9029Z" fill="white"/>
<path d="M174.215 52.5443C174.171 52.623 174.127 52.7017 174.078 52.7805C173.359 54.0394 172.503 55.2143 171.526 56.2837C169.649 58.3286 167.388 59.9814 164.874 61.1475C164.713 61.2262 164.548 61.3 164.384 61.3689V60.5694C164.548 60.4956 164.713 60.4193 164.874 60.3406C168.514 58.5974 171.537 55.7805 173.539 52.2663C173.568 52.2161 173.608 52.1727 173.655 52.1391C173.702 52.1055 173.755 52.0825 173.812 52.0715C173.869 52.0606 173.927 52.0619 173.983 52.0756C174.039 52.0892 174.092 52.1148 174.137 52.1506C174.168 52.1713 174.195 52.1979 174.215 52.2288C174.236 52.2598 174.25 52.2946 174.258 52.3311C174.265 52.3677 174.265 52.4053 174.258 52.4419C174.25 52.4785 174.236 52.5133 174.215 52.5443Z" fill="white"/>
<path d="M164.874 8.11858V26.8159H164.384V26.6167H0.489968V26.8159H0V8.11858C0.00210401 5.96605 0.854532 3.90228 2.37021 2.38021C3.88588 0.858139 5.94098 0.00211289 8.08447 0H156.79C158.933 0.00211289 160.988 0.858139 162.504 2.38021C164.02 3.90228 164.872 5.96605 164.874 8.11858Z" fill="#5F85DB"/>
<path d="M156.79 0H8.08447C5.94098 0.00211289 3.88588 0.858139 2.37021 2.38021C0.854532 3.90228 0.00210401 5.96605 0 8.11858V114.89C0.00210401 117.043 0.854532 119.107 2.37021 120.629C3.88588 122.151 5.94098 123.007 8.08447 123.009H156.79C158.933 123.007 160.988 122.151 162.504 120.629C164.02 119.107 164.872 117.043 164.874 114.89V8.11858C164.872 5.96605 164.02 3.90228 162.504 2.38021C160.988 0.858139 158.933 0.00211289 156.79 0ZM164.384 114.89C164.382 116.912 163.581 118.851 162.157 120.28C160.733 121.71 158.803 122.514 156.79 122.517H8.08447C6.07107 122.514 4.14087 121.71 2.71718 120.28C1.29349 118.851 0.492537 116.912 0.489968 114.89V8.11858C0.492537 6.09669 1.29349 4.15835 2.71718 2.72865C4.14087 1.29895 6.07107 0.494615 8.08447 0.492035H156.79C158.803 0.494616 160.733 1.29895 162.157 2.72865C163.581 4.15835 164.382 6.09669 164.384 8.11858V114.89Z" fill="#3F3D56"/>
<path d="M33.3179 18.3284C36.0239 18.3284 38.2176 16.1255 38.2176 13.408C38.2176 10.6906 36.0239 8.48767 33.3179 8.48767C30.6119 8.48767 28.4182 10.6906 28.4182 13.408C28.4182 16.1255 30.6119 18.3284 33.3179 18.3284Z" fill="white"/>
<path d="M131.556 18.3284C134.262 18.3284 136.456 16.1255 136.456 13.408C136.456 10.6906 134.262 8.48767 131.556 8.48767C128.85 8.48767 126.657 10.6906 126.657 13.408C126.657 16.1255 128.85 18.3284 131.556 18.3284Z" fill="white"/>
<path d="M47.4742 68.2702H18.3269C17.0921 68.2688 15.9083 67.7756 15.0351 66.8987C14.162 66.0219 13.6708 64.8331 13.6694 63.593V49.7588C13.6708 48.5188 14.162 47.33 15.0351 46.4531C15.9083 45.5763 17.0921 45.0831 18.3269 45.0817H47.4742C48.709 45.0831 49.8928 45.5763 50.766 46.4531C51.6391 47.33 52.1303 48.5188 52.1317 49.7588V63.593C52.1303 64.8331 51.6391 66.0219 50.766 66.8987C49.8928 67.7756 48.709 68.2688 47.4742 68.2702Z" fill="#5F85DB"/>
<path d="M97.0587 68.2702H67.9114C66.6766 68.2688 65.4927 67.7756 64.6196 66.8987C63.7465 66.0219 63.2553 64.8331 63.2539 63.593V49.7588C63.2553 48.5188 63.7465 47.33 64.6196 46.4531C65.4927 45.5763 66.6766 45.0831 67.9114 45.0817H97.0587C98.2935 45.0831 99.4773 45.5763 100.35 46.4531C101.224 47.33 101.715 48.5188 101.716 49.7588V63.593C101.715 64.8331 101.224 66.0219 100.35 66.8987C99.4773 67.7756 98.2935 68.2688 97.0587 68.2702Z" fill="#5F85DB"/>
<path d="M97.0587 104.015H67.9114C66.6392 104.013 65.4195 103.505 64.5199 102.602C63.6202 101.698 63.1142 100.474 63.1128 99.196V85.3616C63.1142 84.084 63.6202 82.8591 64.5199 81.9557C65.4195 81.0523 66.6392 80.5442 67.9114 80.5427H97.0587C98.3309 80.5442 99.5506 81.0523 100.45 81.9557C101.35 82.8591 101.856 84.084 101.857 85.3616V99.196C101.856 100.474 101.35 101.698 100.45 102.602C99.5506 103.505 98.3309 104.013 97.0587 104.015Z" fill="#F2F2F2"/>
<path d="M47.379 104.015H18.2317C16.9595 104.013 15.7398 103.505 14.8402 102.602C13.9406 101.698 13.4345 100.474 13.4331 99.196V85.3616C13.4345 84.084 13.9406 82.8591 14.8402 81.9557C15.7398 81.0523 16.9595 80.5442 18.2317 80.5427H47.379C48.6512 80.5442 49.8709 81.0523 50.7705 81.9557C51.6702 82.8591 52.1762 84.084 52.1776 85.3616V99.196C52.1762 100.474 51.6702 101.698 50.7705 102.602C49.8709 103.505 48.6512 104.013 47.379 104.015Z" fill="#F2F2F2"/>
<path d="M146.643 104.015H117.496C116.224 104.013 115.004 103.505 114.104 102.602C113.205 101.698 112.699 100.474 112.697 99.196V85.3616C112.699 84.084 113.205 82.8591 114.104 81.9557C115.004 81.0523 116.224 80.5442 117.496 80.5427H146.643C147.915 80.5442 149.135 81.0523 150.035 81.9557C150.934 82.8591 151.44 84.084 151.442 85.3616V99.196C151.44 100.474 150.934 101.698 150.035 102.602C149.135 103.505 147.915 104.013 146.643 104.015Z" fill="#F2F2F2"/>
<path d="M146.643 68.2983H117.496C116.224 68.2969 115.004 67.7887 114.104 66.8853C113.205 65.9819 112.699 64.757 112.697 63.4794V49.6451C112.699 48.3675 113.205 47.1426 114.104 46.2392C115.004 45.3358 116.224 44.8276 117.496 44.8262H146.643C147.915 44.8276 149.135 45.3358 150.035 46.2392C150.934 47.1426 151.44 48.3675 151.442 49.6451V63.4794C151.44 64.757 150.934 65.9819 150.035 66.8853C149.135 67.7887 147.915 68.2969 146.643 68.2983Z" fill="#F2F2F2"/>
<path d="M32.9002 64.6131C37.2653 64.6131 40.8038 61.0596 40.8038 56.6761C40.8038 52.2926 37.2653 48.7391 32.9002 48.7391C28.5352 48.7391 24.9966 52.2926 24.9966 56.6761C24.9966 61.0596 28.5352 64.6131 32.9002 64.6131Z" fill="white"/>
<path d="M32.1175 59.704C31.9397 59.7043 31.7666 59.6465 31.6243 59.5394L31.6155 59.5328L29.758 58.1047C29.6719 58.0385 29.5996 57.956 29.5452 57.8618C29.4909 57.7675 29.4556 57.6635 29.4413 57.5555C29.427 57.4476 29.434 57.3379 29.462 57.2327C29.49 57.1275 29.5383 57.0288 29.6042 56.9424C29.6702 56.8559 29.7525 56.7834 29.8464 56.7289C29.9402 56.6744 30.0439 56.6391 30.1514 56.6248C30.2589 56.6106 30.3682 56.6178 30.4729 56.6459C30.5776 56.6741 30.6758 56.7228 30.7618 56.7891L31.9649 57.7155L34.808 53.9921C34.8739 53.9057 34.9562 53.8332 35.05 53.7788C35.1438 53.7243 35.2474 53.689 35.3549 53.6747C35.4623 53.6605 35.5715 53.6676 35.6762 53.6958C35.7808 53.7239 35.879 53.7725 35.965 53.8387L35.9473 53.8628L35.9654 53.839C36.1389 53.9729 36.2524 54.1704 36.281 54.3883C36.3097 54.6061 36.2511 54.8264 36.1182 55.0009L32.774 59.3806C32.6967 59.4815 32.5972 59.5632 32.4833 59.6192C32.3695 59.6753 32.2443 59.7043 32.1175 59.704Z" fill="#5F85DB"/>
<path d="M82.6256 64.4992C86.9906 64.4992 90.5292 60.9457 90.5292 56.5622C90.5292 52.1787 86.9906 48.6252 82.6256 48.6252C78.2605 48.6252 74.7219 52.1787 74.7219 56.5622C74.7219 60.9457 78.2605 64.4992 82.6256 64.4992Z" fill="white"/>
<path d="M81.8422 59.5901C81.6644 59.5904 81.4912 59.5326 81.349 59.4255L81.3401 59.4189L79.4827 57.9908C79.309 57.8571 79.1953 57.6596 79.1666 57.4417C79.1378 57.2239 79.1965 57.0035 79.3296 56.829C79.4627 56.6545 79.6594 56.5403 79.8763 56.5115C80.0933 56.4826 80.3128 56.5415 80.4865 56.6752L81.6896 57.6016L84.5327 53.8782C84.5986 53.7918 84.6809 53.7193 84.7747 53.6649C84.8685 53.6104 84.9721 53.5751 85.0795 53.5608C85.187 53.5466 85.2962 53.5537 85.4008 53.5819C85.5055 53.61 85.6037 53.6586 85.6896 53.7248L85.672 53.7489L85.6901 53.7251C85.8636 53.859 85.9771 54.0565 86.0057 54.2744C86.0343 54.4922 85.9758 54.7125 85.8428 54.887L82.4987 59.2667C82.4213 59.3676 82.3219 59.4493 82.208 59.5053C82.0942 59.5614 81.969 59.5904 81.8422 59.5901Z" fill="#5F85DB"/>
<path d="M136.043 94.0154C136.303 93.7303 136.497 93.3915 136.612 93.0228C136.727 92.6541 136.761 92.2646 136.71 91.8816C136.659 91.4987 136.525 91.1316 136.317 90.8062C136.11 90.4809 135.834 90.2052 135.508 89.9986L131.096 66.3384L125.73 68.3367L131.754 90.9655C131.445 91.537 131.355 92.2026 131.502 92.8363C131.648 93.4699 132.021 94.0275 132.55 94.4035C133.078 94.7794 133.726 94.9475 134.37 94.876C135.014 94.8045 135.609 94.4983 136.043 94.0154Z" fill="#A0616A"/>
<path d="M93.2233 57.9125C93.2366 58.0594 93.2384 58.2072 93.2286 58.3544L103.662 66.4187L106.621 65.1986L109.039 69.4422L104.01 72.1134C103.603 72.3292 103.138 72.4068 102.684 72.3346C102.23 72.2624 101.812 72.0443 101.492 71.713L91.0628 60.9155C90.5107 61.0405 89.9339 60.9938 89.4089 60.7816C88.8839 60.5693 88.4357 60.2016 88.1239 59.7273C87.8121 59.253 87.6515 58.6946 87.6635 58.1265C87.6754 57.5583 87.8593 57.0072 88.1907 56.5465C88.5221 56.0859 88.9853 55.7374 89.5188 55.5476C90.0522 55.3578 90.6305 55.3355 91.1768 55.4838C91.7232 55.6321 92.2116 55.9439 92.5771 56.3777C92.9427 56.8116 93.168 57.3469 93.2232 57.9125H93.2233Z" fill="#A0616A"/>
<path d="M117.599 136.011H114.596L113.167 126.837L117.6 126.837L117.599 136.011Z" fill="#A0616A"/>
<path d="M118.365 138.934L108.68 138.934V138.811C108.68 138.314 108.778 137.822 108.967 137.362C109.157 136.903 109.434 136.486 109.784 136.134C110.134 135.783 110.55 135.504 111.007 135.314C111.465 135.124 111.955 135.026 112.45 135.026H112.45L118.365 135.026L118.365 138.934Z" fill="#2F2E41"/>
<path d="M128.869 136.011H125.866L124.437 126.837L128.87 126.837L128.869 136.011Z" fill="#A0616A"/>
<path d="M129.634 138.934L119.95 138.934V138.811C119.95 138.314 120.047 137.822 120.237 137.362C120.426 136.903 120.704 136.486 121.054 136.134C121.404 135.783 121.819 135.504 122.277 135.314C122.734 135.124 123.224 135.026 123.719 135.026H123.719L129.634 135.026L129.634 138.934Z" fill="#2F2E41"/>
<path d="M113.972 134.197C113.698 134.198 113.434 134.095 113.231 133.91C113.028 133.724 112.901 133.47 112.876 133.196L110.259 97.8454L110.382 97.8353L128.394 96.3486L128.399 96.4772L129.83 133.097C129.836 133.246 129.811 133.394 129.759 133.533C129.706 133.672 129.625 133.799 129.523 133.906C129.42 134.014 129.296 134.099 129.16 134.157C129.024 134.215 128.877 134.245 128.729 134.245H125.197C124.933 134.247 124.678 134.153 124.478 133.98C124.278 133.808 124.146 133.569 124.107 133.307L119.312 103.724C119.307 103.694 119.291 103.666 119.267 103.647C119.243 103.628 119.212 103.618 119.182 103.62C119.151 103.623 119.122 103.636 119.101 103.659C119.08 103.682 119.068 103.711 119.068 103.742L118.851 132.95C118.848 133.232 118.739 133.503 118.545 133.707C118.351 133.911 118.087 134.033 117.806 134.048L114.031 134.196C114.011 134.197 113.992 134.197 113.972 134.197Z" fill="#2F2E41"/>
<path d="M117.046 53.1706C120.369 53.1706 123.063 50.4653 123.063 47.1281C123.063 43.791 120.369 41.0857 117.046 41.0857C113.723 41.0857 111.029 43.791 111.029 47.1281C111.029 50.4653 113.723 53.1706 117.046 53.1706Z" fill="#A0616A"/>
<path d="M118.211 100.1C115.581 100.092 112.963 99.733 110.428 99.0319C110.184 98.9606 109.972 98.807 109.827 98.597C109.683 98.3869 109.615 98.1334 109.635 97.879C110.445 85.6535 110.636 76.1662 108.932 69.6019C108.206 66.8042 108.536 63.8576 109.836 61.5178C111.794 57.9966 115.392 55.8534 119.229 55.9274C119.413 55.9309 119.598 55.9374 119.785 55.9471C125.609 56.2482 130.147 61.5392 129.901 67.7417L128.73 97.3052C128.726 97.5209 128.658 97.7305 128.535 97.9076C128.412 98.0846 128.24 98.2212 128.04 98.3001C124.898 99.4873 121.568 100.097 118.211 100.1Z" fill="#3F3D56"/>
<path d="M109.923 71.8718L105.416 66.3254C105.288 66.1676 105.195 65.9839 105.144 65.7868C105.092 65.5897 105.084 65.3839 105.119 65.1833C105.155 64.9827 105.232 64.792 105.348 64.6244C105.463 64.4567 105.613 64.316 105.787 64.2117L111.892 60.5583C112.7 59.9039 113.733 59.5978 114.765 59.7072C115.797 59.8166 116.744 60.3326 117.398 61.142C118.052 61.9514 118.359 62.9882 118.253 64.0249C118.147 65.0617 117.635 66.0138 116.831 66.6725L112.059 71.9307C111.923 72.0812 111.755 72.2003 111.569 72.28C111.382 72.3597 111.181 72.3981 110.978 72.3925C110.775 72.3869 110.576 72.3375 110.394 72.2476C110.212 72.1578 110.051 72.0296 109.923 71.8718Z" fill="#3F3D56"/>
<path d="M124.102 71.1758C123.917 71.0926 123.752 70.9703 123.618 70.8172C123.484 70.664 123.385 70.4838 123.327 70.2886L121.298 63.4726C120.857 62.5288 120.808 61.4481 121.159 60.4675C121.511 59.4869 122.236 58.6865 123.175 58.2419C124.114 57.7972 125.19 57.7446 126.167 58.0956C127.144 58.4466 127.943 59.1725 128.388 60.1141L132.312 66.0649C132.424 66.2347 132.498 66.4268 132.53 66.628C132.561 66.8293 132.549 67.0349 132.494 67.231C132.439 67.4271 132.343 67.609 132.212 67.7643C132.08 67.9196 131.917 68.0447 131.734 68.1311L125.277 71.166C125.094 71.2524 124.893 71.2981 124.691 71.2997C124.488 71.3014 124.287 71.2592 124.102 71.1758Z" fill="#3F3D56"/>
<path d="M120.019 52.0861L115.559 51.0609C115.099 50.9551 114.546 50.7534 114.482 50.2838C114.397 49.6527 115.301 49.2131 115.218 48.5817C115.137 47.9701 114.313 47.8913 113.726 47.7108C113.178 47.5181 112.727 47.1192 112.468 46.5985C112.209 46.0778 112.161 45.4761 112.336 44.9209C111.7 45.8204 110.248 45.8974 109.424 45.1687C108.6 44.44 108.441 43.1178 108.936 42.1334C109.204 41.6498 109.581 41.2365 110.038 40.9269C110.494 40.6174 111.017 40.4205 111.564 40.3521C112.663 40.2269 113.774 40.435 114.754 40.9494C114.819 40.2523 115.686 39.9697 116.383 39.9635C117.832 39.9805 119.238 40.4504 120.408 41.3078C121.578 42.1653 122.453 43.3677 122.91 44.7476C123.766 47.5159 123.194 50.5503 120.8 52.17L120.019 52.0861Z" fill="#2F2E41"/>
<path d="M164.945 139H71.6058C71.5408 139 71.4785 138.974 71.4326 138.928C71.3867 138.882 71.3608 138.819 71.3608 138.754C71.3608 138.689 71.3867 138.626 71.4326 138.58C71.4785 138.534 71.5408 138.508 71.6058 138.508H164.945C165.01 138.508 165.072 138.534 165.118 138.58C165.164 138.626 165.19 138.689 165.19 138.754C165.19 138.819 165.164 138.882 165.118 138.928C165.072 138.974 165.01 139 164.945 139Z" fill="#3F3D56"/>
</g>
<defs>
<clipPath id="clip0_2:19808">
<rect width="209" height="139" fill="white"/>
</clipPath>
</defs>
</svg>
