<svg width="18" height="20" viewBox="0 0 18 20" fill="none" xmlns="http://www.w3.org/2000/svg">
<path fill-rule="evenodd" clip-rule="evenodd" d="M4.81 0H13.191C16.28 0 18 1.74264 18 4.72863V14.8418C18 17.8768 16.28 19.5802 13.191 19.5802H4.81C1.77 19.5802 0 17.8768 0 14.8418V4.72863C0 1.74264 1.77 0 4.81 0ZM5.08 4.56219V4.5524H8.069C8.5 4.5524 8.85 4.89506 8.85 5.31505C8.85 5.7468 8.5 6.08945 8.069 6.08945H5.08C4.649 6.08945 4.3 5.7468 4.3 5.32582C4.3 4.90485 4.649 4.56219 5.08 4.56219ZM5.08 10.5146H12.92C13.35 10.5146 13.7 10.1719 13.7 9.75095C13.7 9.32998 13.35 8.98635 12.92 8.98635H5.08C4.649 8.98635 4.3 9.32998 4.3 9.75095C4.3 10.1719 4.649 10.5146 5.08 10.5146ZM5.08 14.9887H12.92C13.319 14.9495 13.62 14.6157 13.62 14.225C13.62 13.8236 13.319 13.4908 12.92 13.4516H5.08C4.78 13.4223 4.49 13.5593 4.33 13.8139C4.17 14.0586 4.17 14.3817 4.33 14.6362C4.49 14.881 4.78 15.0278 5.08 14.9887Z" fill="#fff"/>
</svg>
