<svg width="20" height="20" viewBox="0 0 20 20" fill="none" xmlns="http://www.w3.org/2000/svg">
<path fill-rule="evenodd" clip-rule="evenodd" d="M5.33 0H14.669C18.07 0 19.99 1.88852 20 5.21814V14.3621C20 17.6908 18.07 19.5803 14.669 19.5803H5.33C1.929 19.5803 0 17.6908 0 14.3621V5.21814C0 1.88852 1.929 0 5.33 0ZM10.049 15.5271C10.48 15.5271 10.839 15.2139 10.879 14.7929V4.81674C10.919 4.51325 10.77 4.20878 10.5 4.04332C10.219 3.87689 9.879 3.87689 9.61 4.04332C9.339 4.20878 9.19 4.51325 9.219 4.81674V14.7929C9.27 15.2139 9.629 15.5271 10.049 15.5271ZM14.65 15.5271C15.07 15.5271 15.429 15.2139 15.48 14.7929V11.5817C15.509 11.2675 15.36 10.9747 15.089 10.8083C14.82 10.6419 14.48 10.6419 14.2 10.8083C13.929 10.9747 13.78 11.2675 13.82 11.5817V14.7929C13.86 15.2139 14.219 15.5271 14.65 15.5271ZM6.219 14.7929C6.179 15.2139 5.82 15.5271 5.389 15.5271C4.959 15.5271 4.599 15.2139 4.56 14.7929V8.02791C4.53 7.72343 4.679 7.42092 4.95 7.25449C5.219 7.08805 5.56 7.08805 5.83 7.25449C6.099 7.42092 6.25 7.72343 6.219 8.02791V14.7929Z" fill="white"/>
</svg>
